# WaveFront *.obj file (generated by Autodesk ATF)

mtllib FlipperCollider.mtl

g Body1

v 0.093119 1.146224 0.000000
v -0.177606 1.136202 0.000000
v -0.438475 1.063128 0.000000
v -0.675010 0.931054 0.000000
v -0.874085 0.747312 0.000000
v -1.024653 0.522097 0.000000
v -1.118358 0.267909 0.000000
v -1.149999 -0.001147 0.000000
v -1.117821 -0.270140 0.000000
v -1.023610 -0.524141 0.000000
v -0.872592 -0.749054 0.000000
v -0.673151 -0.932399 0.000000
v -0.436352 -1.064000 0.000000
v -0.175339 -1.136555 0.000000
v 0.095406 -1.146036 0.000000
v 0.095406 -1.146036 2.400000
v -0.175339 -1.136555 2.400000
v -0.436352 -1.064000 2.400000
v -0.673151 -0.932399 2.400000
v -0.872592 -0.749054 2.400000
v -1.023610 -0.524141 2.400000
v -1.117821 -0.270140 2.400000
v -1.149999 -0.001147 2.400000
v -1.118358 0.267909 2.400000
v -1.024653 0.522097 2.400000
v -0.874085 0.747312 2.400000
v -0.675010 0.931054 2.400000
v -0.438475 1.063128 2.400000
v -0.177606 1.136202 2.400000
v 0.093119 1.146224 2.400000
v 6.152632 0.653951 0.000000
v 6.152632 0.653951 2.400000
v 6.153925 -0.641674 0.000000
v 6.311353 -0.608593 0.000000
v 6.455836 -0.537863 0.000000
v 6.578524 -0.433817 0.000000
v 6.671903 -0.302827 0.000000
v 6.730253 -0.152916 0.000000
v 6.750000 0.006734 0.000000
v 6.729934 0.166344 0.000000
v 6.671286 0.316139 0.000000
v 6.577646 0.446942 0.000000
v 6.454750 0.550744 0.000000
v 6.310126 0.621185 0.000000
v 6.310126 0.621185 2.400000
v 6.454750 0.550744 2.400000
v 6.577646 0.446942 2.400000
v 6.671286 0.316139 2.400000
v 6.729934 0.166344 2.400000
v 6.750000 0.006734 2.400000
v 6.730253 -0.152916 2.400000
v 6.671903 -0.302827 2.400000
v 6.578524 -0.433817 2.400000
v 6.455836 -0.537863 2.400000
v 6.311353 -0.608593 2.400000
v 6.153925 -0.641674 2.400000
vt -2.400000 1.713195 0.000000
vt -0.000000 1.713195 0.000000
vt -2.400000 1.984736 0.000000
vt -0.000000 1.984736 0.000000
vt -2.400000 2.256276 0.000000
vt -0.000000 2.256276 0.000000
vt -2.400000 2.527817 0.000000
vt -0.000000 2.527817 0.000000
vt -2.400000 2.799357 0.000000
vt -0.000000 2.799357 0.000000
vt -2.400000 3.070898 0.000000
vt -0.000000 3.070898 0.000000
vt -2.400000 3.342438 0.000000
vt -0.000000 3.342438 0.000000
vt -2.400000 3.613979 0.000000
vt -0.000000 3.613979 0.000000
vt -2.400000 3.885519 0.000000
vt -0.000000 3.885519 0.000000
vt -2.400000 4.157060 0.000000
vt -0.000000 4.157060 0.000000
vt -2.400000 4.428601 0.000000
vt -0.000000 4.428601 0.000000
vt -2.400000 4.700141 0.000000
vt -0.000000 4.700141 0.000000
vt -2.400000 4.971682 0.000000
vt -0.000000 4.971682 0.000000
vt -2.400000 5.243222 0.000000
vt -0.000000 5.243222 0.000000
vt -2.400000 5.514763 0.000000
vt -0.000000 5.514763 0.000000
vt -0.000000 0.000000 0.000000
vt 6.079477 0.000000 0.000000
vt -0.000000 2.400000 0.000000
vt 6.079477 2.400000 0.000000
vt -2.400000 -0.967031 0.000000
vt -0.000000 -0.967031 0.000000
vt -2.400000 -0.805751 0.000000
vt -0.000000 -0.805751 0.000000
vt -2.400000 -0.644471 0.000000
vt -0.000000 -0.644471 0.000000
vt -2.400000 -0.483191 0.000000
vt -0.000000 -0.483191 0.000000
vt -2.400000 -0.321911 0.000000
vt -0.000000 -0.321911 0.000000
vt -2.400000 -0.160631 0.000000
vt -0.000000 -0.160631 0.000000
vt -2.400000 0.000648 0.000000
vt -0.000000 0.000648 0.000000
vt -2.400000 0.161928 0.000000
vt -0.000000 0.161928 0.000000
vt -2.400000 0.323208 0.000000
vt -0.000000 0.323208 0.000000
vt -2.400000 0.484488 0.000000
vt -0.000000 0.484488 0.000000
vt -2.400000 0.645768 0.000000
vt -0.000000 0.645768 0.000000
vt -2.400000 0.807048 0.000000
vt -0.000000 0.807048 0.000000
vt -2.400000 0.968328 0.000000
vt -0.000000 0.968328 0.000000
vt 0.000000 0.000000 0.000000
vt 6.079477 0.000000 0.000000
vt 0.000000 2.400000 0.000000
vt 6.079477 2.400000 0.000000
vt 3.353925 -0.641674 0.000000
vt -3.823610 -0.524141 0.000000
vt -2.704594 -1.146036 0.000000
vt -3.672592 -0.749054 0.000000
vt -3.473151 -0.932399 0.000000
vt 3.511353 -0.608593 0.000000
vt 3.655836 -0.537863 0.000000
vt 3.778524 -0.433817 0.000000
vt 3.871903 -0.302827 0.000000
vt 3.930253 -0.152916 0.000000
vt -3.949999 -0.001147 0.000000
vt -3.917821 -0.270140 0.000000
vt 3.950000 0.006734 0.000000
vt 3.929934 0.166344 0.000000
vt 3.352632 0.653951 0.000000
vt 3.871286 0.316139 0.000000
vt 3.777646 0.446942 0.000000
vt 3.654750 0.550744 0.000000
vt 3.510126 0.621185 0.000000
vt -2.706881 1.146224 0.000000
vt -3.824653 0.522097 0.000000
vt -3.918358 0.267909 0.000000
vt -2.977606 1.136202 0.000000
vt -3.238475 1.063128 0.000000
vt -3.475010 0.931054 0.000000
vt -3.674085 0.747312 0.000000
vt -3.236352 -1.064000 0.000000
vt -2.975339 -1.136555 0.000000
vt 2.704594 -1.146036 0.000000
vt 3.823610 -0.524141 0.000000
vt -3.353925 -0.641674 0.000000
vt 3.917821 -0.270140 0.000000
vt 3.949999 -0.001147 0.000000
vt 2.975339 -1.136555 0.000000
vt 3.236352 -1.064000 0.000000
vt 3.473151 -0.932399 0.000000
vt 3.672592 -0.749054 0.000000
vt 3.918358 0.267909 0.000000
vt -3.352632 0.653951 0.000000
vt -3.929934 0.166344 0.000000
vt -3.950000 0.006734 0.000000
vt 3.824653 0.522097 0.000000
vt 2.706881 1.146224 0.000000
vt 3.674085 0.747312 0.000000
vt 3.475010 0.931054 0.000000
vt 3.238475 1.063128 0.000000
vt 2.977606 1.136202 0.000000
vt -3.510126 0.621185 0.000000
vt -3.654750 0.550744 0.000000
vt -3.777646 0.446942 0.000000
vt -3.871286 0.316139 0.000000
vt -3.930253 -0.152916 0.000000
vt -3.871903 -0.302827 0.000000
vt -3.778524 -0.433817 0.000000
vt -3.655836 -0.537863 0.000000
vt -3.511353 -0.608593 0.000000
vn 0.080973 0.996716 -0.000000
vn 0.080973 0.996716 -0.000000
vn -0.154440 0.988002 -0.000000
vn -0.154440 0.988002 -0.000000
vn -0.381282 0.924459 -0.000000
vn -0.381282 0.924459 -0.000000
vn -0.586965 0.809612 -0.000000
vn -0.586965 0.809612 -0.000000
vn -0.760074 0.649836 -0.000000
vn -0.760074 0.649836 -0.000000
vn -0.891003 0.453998 -0.000000
vn -0.891003 0.453998 -0.000000
vn -0.972485 0.232964 -0.000000
vn -0.972485 0.232964 -0.000000
vn -1.000000 -0.000998 0.000000
vn -1.000000 -0.000998 0.000000
vn -0.972019 -0.234904 0.000000
vn -0.972019 -0.234904 0.000000
vn -0.890095 -0.455774 0.000000
vn -0.890095 -0.455774 0.000000
vn -0.758776 -0.651352 0.000000
vn -0.758776 -0.651352 0.000000
vn -0.585348 -0.810782 0.000000
vn -0.585348 -0.810782 0.000000
vn -0.379437 -0.925218 0.000000
vn -0.379437 -0.925218 0.000000
vn -0.152468 -0.988308 0.000000
vn -0.152468 -0.988308 0.000000
vn 0.082961 -0.996553 -0.000000
vn 0.082961 -0.996553 -0.000000
vn 0.080973 0.996716 -0.000000
vn 0.080973 0.996716 -0.000000
vn 0.082961 -0.996553 -0.000000
vn 0.082961 -0.996553 -0.000000
vn 0.325159 -0.945659 -0.000000
vn 0.325159 -0.945659 -0.000000
vn 0.547440 -0.836845 -0.000000
vn 0.547440 -0.836845 -0.000000
vn 0.736191 -0.676773 -0.000000
vn 0.736191 -0.676773 -0.000000
vn 0.879851 -0.475250 -0.000000
vn 0.879851 -0.475250 -0.000000
vn 0.969620 -0.244617 -0.000000
vn 0.969620 -0.244617 -0.000000
vn 1.000000 0.000998 -0.000000
vn 1.000000 0.000998 -0.000000
vn 0.969130 0.246552 -0.000000
vn 0.969130 0.246552 -0.000000
vn 0.878901 0.477005 -0.000000
vn 0.878901 0.477005 -0.000000
vn 0.734840 0.678241 -0.000000
vn 0.734840 0.678241 -0.000000
vn 0.545770 0.837935 -0.000000
vn 0.545770 0.837935 -0.000000
vn 0.323271 0.946306 -0.000000
vn 0.323271 0.946306 -0.000000
vn 0.000000 0.000000 1.000000
vn 0.000000 0.000000 1.000000
vn 0.000000 0.000000 1.000000
vn 0.000000 0.000000 1.000000
vn 0.000000 0.000000 1.000000
vn 0.000000 0.000000 1.000000
vn 0.000000 0.000000 1.000000
vn 0.000000 0.000000 1.000000
vn 0.000000 0.000000 1.000000
vn 0.000000 0.000000 1.000000
vn 0.000000 0.000000 1.000000
vn 0.000000 0.000000 1.000000
vn 0.000000 0.000000 1.000000
vn 0.000000 0.000000 1.000000
vn 0.000000 0.000000 1.000000
vn 0.000000 0.000000 1.000000
vn 0.000000 0.000000 1.000000
vn 0.000000 0.000000 1.000000
vn 0.000000 0.000000 1.000000
vn 0.000000 0.000000 1.000000
vn 0.000000 0.000000 1.000000
vn 0.000000 0.000000 1.000000
vn 0.000000 0.000000 1.000000
vn 0.000000 0.000000 1.000000
vn 0.000000 0.000000 1.000000
vn 0.000000 0.000000 1.000000
vn 0.000000 0.000000 1.000000
vn 0.000000 0.000000 1.000000
vn -0.000000 -0.000000 -1.000000
vn -0.000000 -0.000000 -1.000000
vn -0.000000 -0.000000 -1.000000
vn -0.000000 -0.000000 -1.000000
vn -0.000000 -0.000000 -1.000000
vn -0.000000 -0.000000 -1.000000
vn -0.000000 -0.000000 -1.000000
vn -0.000000 -0.000000 -1.000000
vn -0.000000 -0.000000 -1.000000
vn -0.000000 -0.000000 -1.000000
vn -0.000000 -0.000000 -1.000000
vn -0.000000 -0.000000 -1.000000
vn -0.000000 -0.000000 -1.000000
vn -0.000000 -0.000000 -1.000000
vn -0.000000 -0.000000 -1.000000
vn -0.000000 -0.000000 -1.000000
vn -0.000000 -0.000000 -1.000000
vn -0.000000 -0.000000 -1.000000
vn -0.000000 -0.000000 -1.000000
vn -0.000000 -0.000000 -1.000000
vn -0.000000 -0.000000 -1.000000
vn -0.000000 -0.000000 -1.000000
vn -0.000000 -0.000000 -1.000000
vn -0.000000 -0.000000 -1.000000
vn -0.000000 -0.000000 -1.000000
vn -0.000000 -0.000000 -1.000000
vn -0.000000 -0.000000 -1.000000
vn -0.000000 -0.000000 -1.000000
usemtl Steel_-_Satin
f 30/1/1 1/2/2 29/3/3
f 29/3/3 1/2/2 2/4/4
f 29/3/3 2/4/4 28/5/5
f 28/5/5 2/4/4 3/6/6
f 28/5/5 3/6/6 27/7/7
f 27/7/7 3/6/6 4/8/8
f 27/7/7 4/8/8 26/9/9
f 26/9/9 4/8/8 5/10/10
f 26/9/9 5/10/10 25/11/11
f 25/11/11 5/10/10 6/12/12
f 25/11/11 6/12/12 24/13/13
f 24/13/13 6/12/12 7/14/14
f 24/13/13 7/14/14 23/15/15
f 23/15/15 7/14/14 8/16/16
f 23/15/15 8/16/16 22/17/17
f 22/17/17 8/16/16 9/18/18
f 22/17/17 9/18/18 21/19/19
f 21/19/19 9/18/18 10/20/20
f 21/19/19 10/20/20 20/21/21
f 20/21/21 10/20/20 11/22/22
f 20/21/21 11/22/22 19/23/23
f 19/23/23 11/22/22 12/24/24
f 19/23/23 12/24/24 18/25/25
f 18/25/25 12/24/24 13/26/26
f 18/25/25 13/26/26 17/27/27
f 17/27/27 13/26/26 14/28/28
f 17/27/27 14/28/28 16/29/29
f 16/29/29 14/28/28 15/30/30
f 31/31/31 1/32/2 32/33/32
f 32/33/32 1/32/2 30/34/1
f 56/35/33 33/36/34 55/37/35
f 55/37/35 33/36/34 34/38/36
f 55/37/35 34/38/36 54/39/37
f 54/39/37 34/38/36 35/40/38
f 54/39/37 35/40/38 53/41/39
f 53/41/39 35/40/38 36/42/40
f 53/41/39 36/42/40 52/43/41
f 52/43/41 36/42/40 37/44/42
f 52/43/41 37/44/42 51/45/43
f 51/45/43 37/44/42 38/46/44
f 51/45/43 38/46/44 50/47/45
f 50/47/45 38/46/44 39/48/46
f 50/47/45 39/48/46 49/49/47
f 49/49/47 39/48/46 40/50/48
f 49/49/47 40/50/48 48/51/49
f 48/51/49 40/50/48 41/52/50
f 48/51/49 41/52/50 47/53/51
f 47/53/51 41/52/50 42/54/52
f 47/53/51 42/54/52 46/55/53
f 46/55/53 42/54/52 43/56/54
f 46/55/53 43/56/54 45/57/55
f 45/57/55 43/56/54 44/58/56
f 45/57/55 44/58/56 32/59/32
f 32/59/32 44/58/56 31/60/31
f 15/61/30 33/62/34 16/63/29
f 16/63/29 33/62/34 56/64/33
f 56/65/57 21/66/58 16/67/59
f 16/67/59 21/66/58 20/68/60
f 16/67/59 20/68/60 19/69/61
f 55/70/62 54/71/63 56/65/57
f 56/65/57 54/71/63 53/72/64
f 56/65/57 53/72/64 52/73/65
f 52/73/65 51/74/66 56/65/57
f 56/65/57 51/74/66 23/75/67
f 56/65/57 23/75/67 22/76/68
f 51/74/66 50/77/69 23/75/67
f 23/75/67 50/77/69 49/78/70
f 23/75/67 49/78/70 32/79/71
f 32/79/71 49/78/70 48/80/72
f 32/79/71 48/80/72 47/81/73
f 47/81/73 46/82/74 32/79/71
f 32/79/71 46/82/74 45/83/75
f 30/84/76 25/85/77 32/79/71
f 32/79/71 25/85/77 24/86/78
f 32/79/71 24/86/78 23/75/67
f 29/87/79 28/88/80 30/84/76
f 30/84/76 28/88/80 27/89/81
f 30/84/76 27/89/81 26/90/82
f 26/90/82 25/85/77 30/84/76
f 22/76/68 21/66/58 56/65/57
f 19/69/61 18/91/83 16/67/59
f 16/67/59 18/91/83 17/92/84
f 15/93/85 10/94/86 33/95/87
f 33/95/87 10/94/86 9/96/88
f 33/95/87 9/96/88 8/97/89
f 14/98/90 13/99/91 15/93/85
f 15/93/85 13/99/91 12/100/92
f 15/93/85 12/100/92 11/101/93
f 11/101/93 10/94/86 15/93/85
f 7/102/94 31/103/95 8/97/89
f 8/97/89 31/103/95 40/104/96
f 8/97/89 40/104/96 39/105/97
f 7/102/94 6/106/98 31/103/95
f 31/103/95 6/106/98 1/107/99
f 1/107/99 6/106/98 5/108/100
f 1/107/99 5/108/100 4/109/101
f 4/109/101 3/110/102 1/107/99
f 1/107/99 3/110/102 2/111/103
f 44/112/104 43/113/105 31/103/95
f 31/103/95 43/113/105 42/114/106
f 31/103/95 42/114/106 41/115/107
f 41/115/107 40/104/96 31/103/95
f 39/105/97 38/116/108 8/97/89
f 8/97/89 38/116/108 33/95/87
f 38/116/108 37/117/109 33/95/87
f 33/95/87 37/117/109 36/118/110
f 33/95/87 36/118/110 35/119/111
f 35/119/111 34/120/112 33/95/87
# 56 vertices
# 120 texture params
# 112 normals
# 108 facets

# 1 groups
